<svg width="50" height="50" viewBox="0 0 50 50" fill="none" xmlns="http://www.w3.org/2000/svg">
<g clip-path="url(#clip0_22_1162)">
<path d="M35.7152 12.2728C36.0594 12.2728 36.3246 12.3367 36.5108 12.4645C36.6972 12.5782 36.8334 12.7912 36.9194 13.1037C37.0198 13.4162 37.07 13.8708 37.07 14.4674C37.07 15.0639 37.0198 15.5185 36.9194 15.831C36.8334 16.1435 36.6972 16.3566 36.5108 16.4702C36.3246 16.5838 36.0594 16.6407 35.7152 16.6407H34.7692L27.4154 27.7842V33.196H31.6298C31.9738 33.196 32.239 33.26 32.4254 33.3878C32.6118 33.5014 32.748 33.7146 32.834 34.027C32.9344 34.3396 32.9846 34.794 32.9846 35.3906C32.9846 35.9872 32.9344 36.4418 32.834 36.7542C32.748 37.0668 32.6118 37.2798 32.4254 37.3934C32.239 37.5072 31.9738 37.564 31.6298 37.564H17.8254C17.4813 37.564 17.2162 37.5072 17.0298 37.3934C16.8434 37.2798 16.7001 37.0668 16.5998 36.7542C16.5137 36.4418 16.4707 35.9872 16.4707 35.3906C16.4707 34.794 16.5137 34.3396 16.5998 34.027C16.7001 33.7146 16.8434 33.5014 17.0298 33.3878C17.2162 33.26 17.4813 33.196 17.8254 33.196H22.0398V27.7628L14.7291 16.6407H13.7399C13.3959 16.6407 13.1307 16.5838 12.9444 16.4702C12.758 16.3566 12.6147 16.1435 12.5143 15.831C12.4283 15.5185 12.3853 15.0639 12.3853 14.4674C12.3853 13.8708 12.4283 13.4162 12.5143 13.1037C12.6147 12.7912 12.758 12.5782 12.9444 12.4645C13.1307 12.3367 13.3959 12.2728 13.7399 12.2728H22.2118C22.5558 12.2728 22.821 12.3367 23.0074 12.4645C23.1938 12.5782 23.33 12.7912 23.416 13.1037C23.5164 13.4162 23.5664 13.8708 23.5664 14.4674C23.5664 15.0639 23.5164 15.5185 23.416 15.831C23.33 16.1435 23.1938 16.3566 23.0074 16.4702C22.821 16.5838 22.5558 16.6407 22.2118 16.6407H20.7712L24.7706 22.8622L28.813 16.6407H27.6734C27.3294 16.6407 27.0642 16.5838 26.8778 16.4702C26.6914 16.3566 26.5482 16.1435 26.4478 15.831C26.3618 15.5185 26.3188 15.0639 26.3188 14.4674C26.3188 13.8708 26.3618 13.4162 26.4478 13.1037C26.5482 12.7912 26.6914 12.5782 26.8778 12.4645C27.0642 12.3367 27.3294 12.2728 27.6734 12.2728H35.7152Z" fill="#0EA5E9"/>
<path fill-rule="evenodd" clip-rule="evenodd" d="M0 26C0 25.4478 0.447714 25 1 25H3.58716C4.13944 25 4.58716 25.4478 4.58716 26V44.4546C4.58716 45.0068 5.03488 45.4546 5.58716 45.4546H24.2294C24.7816 45.4546 25.2294 45.9022 25.2294 46.4546V49C25.2294 49.5522 24.7816 50 24.2294 50H1C0.447716 50 0 49.5522 0 49V26Z" fill="#0EA5E9"/>
<path fill-rule="evenodd" clip-rule="evenodd" d="M50 24C50 24.5522 49.5522 25 49 25H46.4128C45.8606 25 45.4128 24.5522 45.4128 24V5.54546C45.4128 4.99316 44.9652 4.54546 44.4128 4.54546H25.7706C25.2184 4.54546 24.7706 4.09774 24.7706 3.54546V1C24.7706 0.447716 25.2184 0 25.7706 0H49C49.5522 0 50 0.447716 50 1V24Z" fill="#0EA5E9"/>
</g>
<defs>
<clipPath id="clip0_22_1162">
<rect width="50" height="50" fill="white"/>
</clipPath>
</defs>
</svg>
